<mxfile host="multicloud-diagrams" agent="PIP package multicloud-diagrams. Generate resources in draw.io compatible format for Cloud infrastructure. Copyrights @ Roman Tsypuk 2023. MIT license." type="MultiCloud">
	<diagram id="diagram_1" name="AWS components">
		<mxGraphModel dx="1015" dy="661" grid="1" gridSize="10" guides="1" tooltips="1" connect="1" arrows="1" fold="1" page="1" pageScale="1" pageWidth="850" pageHeight="1100" math="0" shadow="1">
			<root>
				<mxCell id="0" />
				<mxCell id="1" parent="0" />
				<mxCell id="vertex:lambda_function:arn:aws:lambda:eu-west-1:123456789012:function:prod-lambda-name" value="&lt;b&gt;Name&lt;/b&gt;: prod-lambda-name&lt;BR&gt;&lt;b&gt;ARN&lt;/b&gt;: arn:aws:lambda:eu-west-1:123456789012:function:prod-lambda-name" style="verticalLabelPosition=bottom;verticalAlign=top;aspect=fixed;align=left;pointerEvents=1;shape=mxgraph.aws3.lambda_function;prIcon=server;fillColor=#F58534;gradientColor=none;html=1;" parent="1" vertex="1">
					<mxGeometry width="69" height="72" as="geometry" x="100" y="-230" />
				</mxCell>
				<mxCell id="vertex:dynamo:arn:aws:dynamodb:eu-west-1:123456789012:table/prod-dynamo-table" value="&lt;b&gt;Name&lt;/b&gt;: prod-dynamo-table&lt;BR&gt;&lt;b&gt;ARN&lt;/b&gt;: arn:aws:dynamodb:eu-west-1:123456789012:table/prod-dynamo-table" style="outlineConnect=0;dashed=0;verticalLabelPosition=bottom;verticalAlign=top;align=left;html=1;shape=mxgraph.aws3.dynamo_db;fillColor=#2E73B8;gradientColor=none;" parent="1" vertex="1">
					<mxGeometry width="72" height="81" as="geometry" x="100" y="-70" />
				</mxCell>
				<mxCell id="edge:lambda_function:arn:aws:lambda:eu-west-1:123456789012:function:prod-lambda-name:to:dynamo:arn:aws:dynamodb:eu-west-1:123456789012:table/prod-dynamo-table" style="endFill=0;endArrow=none;endArrow=none;" parent="1" source="vertex:lambda_function:arn:aws:lambda:eu-west-1:123456789012:function:prod-lambda-name" target="vertex:dynamo:arn:aws:dynamodb:eu-west-1:123456789012:table/prod-dynamo-table" edge="2">
					<mxGeometry as="geometry" />
				</mxCell>
				<mxCell id="label:lambda_function:arn:aws:lambda:eu-west-1:123456789012:function:prod-lambda-name:to:dynamo:arn:aws:dynamodb:eu-west-1:123456789012:table/prod-dynamo-table" value="GET permissions" style="edgeLabel;html=1;align=left;verticalAlign=middle;resizable=0;points=[];labelBackgroundColor=none;" parent="edge:lambda_function:arn:aws:lambda:eu-west-1:123456789012:function:prod-lambda-name:to:dynamo:arn:aws:dynamodb:eu-west-1:123456789012:table/prod-dynamo-table" vertex="1" connectable="0">
					<mxGeometry relative="1" as="geometry">
						<mxPoint as="offset" />
					</mxGeometry>
				</mxCell>
				<mxCell id="vertex:mq_broker:host.broker.com" value="&lt;b&gt;Name&lt;/b&gt;: event-broker&lt;BR&gt;&lt;b&gt;ID&lt;/b&gt;: host.broker.com" style="sketch=0;outlineConnect=0;fontColor=#232F3E;gradientColor=none;fillColor=#B0084D;strokeColor=none;dashed=0;verticalLabelPosition=bottom;verticalAlign=top;align=left;html=1;fontSize=12;fontStyle=0;aspect=fixed;pointerEvents=1;shape=mxgraph.aws4.mq_broker;" parent="1" vertex="1">
					<mxGeometry width="78" height="78" as="geometry" x="-160" y="-233" />
				</mxCell>
				<mxCell id="vertex:http:domain.com" value="&lt;b&gt;Name&lt;/b&gt;: on-prem-server&lt;BR&gt;&lt;b&gt;ID&lt;/b&gt;: domain.com" style="outlineConnect=0;dashed=0;verticalLabelPosition=bottom;verticalAlign=top;align=left;html=1;shape=mxgraph.aws3.http_protocol;fillColor=#5294CF;gradientColor=none;" parent="1" vertex="1">
					<mxGeometry width="63" height="66" as="geometry" x="103" y="-420" />
				</mxCell>
				<mxCell id="edge:lambda_function:arn:aws:lambda:eu-west-1:123456789012:function:prod-lambda-name:to:mq_broker:host.broker.com" style="endFill=0;endArrow=none;endArrow=none;" parent="1" source="vertex:lambda_function:arn:aws:lambda:eu-west-1:123456789012:function:prod-lambda-name" target="vertex:mq_broker:host.broker.com" edge="2">
					<mxGeometry as="geometry" />
				</mxCell>
				<mxCell id="label:lambda_function:arn:aws:lambda:eu-west-1:123456789012:function:prod-lambda-name:to:mq_broker:host.broker.com" value="Publish user activity log" style="edgeLabel;html=1;align=left;verticalAlign=middle;resizable=0;points=[];labelBackgroundColor=none;" parent="edge:lambda_function:arn:aws:lambda:eu-west-1:123456789012:function:prod-lambda-name:to:mq_broker:host.broker.com" vertex="1" connectable="0">
					<mxGeometry relative="1" as="geometry">
						<mxPoint as="offset" x="-49" y="-16" />
					</mxGeometry>
				</mxCell>
				<mxCell id="edge:lambda_function:arn:aws:lambda:eu-west-1:123456789012:function:prod-lambda-name:to:http:domain.com" style="endFill=0;endArrow=none;endArrow=none;" parent="1" source="vertex:lambda_function:arn:aws:lambda:eu-west-1:123456789012:function:prod-lambda-name" target="vertex:http:domain.com" edge="2">
					<mxGeometry as="geometry" />
				</mxCell>
				<mxCell id="label:lambda_function:arn:aws:lambda:eu-west-1:123456789012:function:prod-lambda-name:to:http:domain.com" value="HTTP GET user actions" style="edgeLabel;html=1;align=left;verticalAlign=middle;resizable=0;points=[];labelBackgroundColor=none;" parent="edge:lambda_function:arn:aws:lambda:eu-west-1:123456789012:function:prod-lambda-name:to:http:domain.com" vertex="1" connectable="0">
					<mxGeometry relative="1" as="geometry">
						<mxPoint as="offset" y="22" />
					</mxGeometry>
				</mxCell>
				<mxCell id="vertex:http:domain2.com" value="&lt;b&gt;Name&lt;/b&gt;: oauth-server&lt;BR&gt;&lt;b&gt;ID&lt;/b&gt;: domain2.com" style="outlineConnect=0;dashed=0;verticalLabelPosition=bottom;verticalAlign=top;align=left;html=1;shape=mxgraph.aws3.http_protocol;fillColor=#5294CF;gradientColor=none;" parent="1" vertex="1">
					<mxGeometry width="63" height="66" as="geometry" />
				</mxCell>
				<mxCell id="edge:lambda_function:arn:aws:lambda:eu-west-1:123456789012:function:prod-lambda-name:to:http:domain2.com" style="endFill=0;endArrow=none;endArrow=none;" parent="1" source="vertex:lambda_function:arn:aws:lambda:eu-west-1:123456789012:function:prod-lambda-name" target="vertex:http:domain2.com" edge="2">
					<mxGeometry as="geometry" />
				</mxCell>
				<mxCell id="label:lambda_function:arn:aws:lambda:eu-west-1:123456789012:function:prod-lambda-name:to:http:domain2.com" value="check user authority" style="edgeLabel;html=1;align=left;verticalAlign=middle;resizable=0;points=[];labelBackgroundColor=none;" parent="edge:lambda_function:arn:aws:lambda:eu-west-1:123456789012:function:prod-lambda-name:to:http:domain2.com" vertex="1" connectable="0">
					<mxGeometry relative="1" as="geometry">
						<mxPoint as="offset" />
					</mxGeometry>
				</mxCell>
			</root>
		</mxGraphModel>
	</diagram>
</mxfile>